PathFileType	4	(X/Y/Z)	Patient4_TMGait_0pt5_01_left_12.trc.trc
DataRate	CameraRate	NumFrames	NumMarkers	Units	OrigDataRate	OrigDataStartFrame	OrigNumFrames
76.502732240437	76.502732240437	6	33	mm	76.502732240437	1	       141
Frame#	Time	L.ASIS			Sacral			L.Shoulder			Chest			R.Shoulder			Neck			R.ASIS			R.Thigh.Superior			R.Thigh.Lateral			R.Thigh.Inferior			R.Patella			L.Thigh.Superior			L.Thigh.Lateral			L.Thigh.Inferior			L.Patella			L.Shank.Superior			L.Shank.Lateral			L.Shank.Inferior			R.Shank.Superior			R.Shank.Lateral			R.Shank.Inferior			R.Heel			R.Midfoot.Superior			R.Midfoot.Lateral			R.Toe			L.Heel			L.Midfoot.Lateral			L.Midfoot.Superior			L.Toe			L.Elbow			L.Wrist			R.Elbow			R.Wrist			
		X1	Y1	Z1	X2	Y2	Z2	X3	Y3	Z3	X4	Y4	Z4	X5	Y5	Z5	X6	Y6	Z6	X7	Y7	Z7	X8	Y8	Z8	X9	Y9	Z9	X10	Y10	Z10	X11	Y11	Z11	X12	Y12	Z12	X13	Y13	Z13	X14	Y14	Z14	X15	Y15	Z15	X16	Y16	Z16	X17	Y17	Z17	X18	Y18	Z18	X19	Y19	Z19	X20	Y20	Z20	X21	Y21	Z21	X22	Y22	Z22	X23	Y23	Z23	X24	Y24	Z24	X25	Y25	Z25	X26	Y26	Z26	X27	Y27	Z27	X28	Y28	Z28	X29	Y29	Z29	X30	Y30	Z30	X31	Y31	Z31	X32	Y32	Z32	X33	Y33	Z33	

1	16.030000000000	788.107330055727	956.039006771623	338.393781204474	574.593543247225	1002.779497078397	494.971460159918	745.341252129150	1434.423954948843	318.417252260849	847.811578103537	1360.725715326691	478.446283538433	764.172793804796	1429.320106801319	655.391915200047	746.669260611816	1494.042823556803	471.956605008580	802.966056146344	944.527368584537	612.617389640220	850.303484138264	744.688481463490	587.202070373517	771.108591728206	636.016222156976	645.518296935005	847.606529342828	584.470316487748	564.317255573720	848.876227453238	496.987000374455	569.246238030261	857.888683271289	756.020430016871	369.140353584780	799.634982695273	632.430717335023	298.937204150513	895.994824747393	562.079808516153	363.094194581815	898.897964341473	470.787920838124	360.849317614515	825.344732289948	410.540836109775	354.558744656552	683.115214742360	383.653339655320	298.811828612287	649.954222265050	260.715414335248	359.194379690506	825.134798058370	407.795118551740	578.672731070365	758.085639043572	301.879620873316	639.927746621381	804.543467159865	208.538571277096	578.543774267371	675.017022890244	42.411424649112	547.215682638562	845.533389027238	97.810071484034	586.508073022292	756.324890906001	36.089727682889	624.280538471817	964.818649134380	44.667699655618	617.442099815535	450.712094943952	232.833638370153	383.819592827756	504.239842044040	168.817756682917	314.100394135885	606.719604538691	157.997939229880	343.900035265852	661.541297527324	31.130365631505	334.894411341413	723.884685955883	1078.719497904756	198.802890633296	842.100566123596	844.885718830013	187.962325262251	767.069734501649	1077.739653821793	767.687496169579	920.512941458652	865.913431877872	770.861608881236	
2	16.043071428571	787.144216842739	956.480384425782	339.010657612235	574.171260532664	1003.545254140007	496.030354328020	745.148346581331	1434.393490094361	318.397053206724	848.082401289250	1360.953541757370	478.199501173563	765.211094755259	1430.077179715357	655.301176014932	747.192045713974	1494.354960236391	471.747685141382	802.817479883403	944.647419505494	613.133250524015	849.301831081421	744.416320048620	587.607264190635	769.430302590633	636.137426837621	645.934944401601	845.439605354182	584.182890226734	564.632694126082	846.197945960045	496.799425600102	569.443573425066	858.814011764874	758.454847209866	370.504439260036	803.080199441383	634.694076733477	299.385724136424	900.071098311082	565.505530511236	363.949214959925	904.302712286161	474.074951988019	361.392272811371	831.181532037327	413.067460995855	354.783400003821	688.910044294518	385.189071526746	299.146154694208	656.884718164942	261.675894521575	359.053274099584	822.294592832030	407.665186783520	578.830754045546	755.073293709909	301.916643930754	640.174552317032	801.167596374446	208.494258955961	578.614693474447	671.250152617738	42.459601956151	547.284396901124	841.804435416162	97.809321675333	586.592098340521	752.594519525886	36.121847106259	624.378722766813	961.092371821293	44.608867572307	617.509149662451	457.619198765051	231.532563298265	384.086946446806	511.711454160516	168.610985860999	313.702304361328	614.513982563047	158.745040058785	343.127339794868	670.834879091088	32.392514895067	332.849788686728	721.258709493944	1078.256822842028	200.686386253846	831.729922773844	841.371282545571	190.240082256757	772.809418204677	1079.125533616151	768.716435731220	932.887297594359	872.808774602390	770.510603221266	
3	16.056142857143	785.894163072628	957.041053396980	339.691984547822	573.649127359111	1004.517372654112	497.315492218258	744.935781891293	1434.375302991517	318.353516585019	848.459974396435	1361.213242090792	477.844822575691	766.590546775087	1430.988310982819	655.157767491266	747.878465466716	1494.735648393318	471.477491663978	802.633785505156	944.790730034308	613.684145269580	847.951082197078	744.067837929979	587.954272131406	767.301344026201	636.300354801070	646.407520303036	842.646150911179	583.827715323458	564.947201191530	842.786629439169	496.572098074700	569.665148622978	859.803244622560	761.456656005558	372.050841382960	806.969211866455	637.452289996375	299.935047304182	904.725730208250	569.671242467053	364.930801332119	910.573932459659	478.153815265056	362.032669013666	838.223320443059	416.119270881351	355.002451526701	696.035993947473	386.454604588818	299.575726010218	666.038290121604	262.136814543396	358.833992410888	818.689308356611	407.514486923821	579.010607026705	751.260502622088	301.958038906172	640.459610759468	796.946127941275	208.445982460459	578.702169409008	666.574562748511	42.504789824842	547.358171034128	837.174940622745	97.808596568541	586.701041482394	747.962187943828	36.151725779294	624.491393724827	956.466529763620	44.548812828111	617.594841328660	467.080035668336	228.338612835660	384.518134930949	521.957620426616	167.111384155489	313.203272563542	625.173708169623	158.864868074794	342.070426089707	683.809277267938	33.531405934572	330.021141757807	717.956853139122	1077.752535517188	202.963237652830	818.972213929794	837.444093356841	193.076552612516	779.763765833043	1080.866613486591	769.862090568168	947.875960369028	881.779203158026	769.877983362898	
4	16.069214285714	784.376353416625	957.699684296209	340.383639850872	573.039124277302	1005.661943479999	498.780179134757	744.711727760609	1434.363721611474	318.278832983830	848.944663042931	1361.473385973081	477.367167158303	768.309490241149	1432.002511012174	654.946695040728	748.723126471965	1495.157775844635	471.145750187203	802.410237726695	944.936978573078	614.217230281657	846.243464154952	743.637780030610	588.183653952951	764.754273677269	636.496499098421	646.903199657772	839.258901476906	583.407203770515	565.225162782734	838.693569595081	496.304510379766	569.891462080445	860.769149013397	764.913338064173	373.677744730927	811.050960427433	640.585597579402	300.561257541747	909.673702845816	574.404128400133	365.985037480212	917.374094255281	482.898189042868	362.737618466868	846.204026221516	419.586697516623	355.193480153058	704.336118400610	387.190848819204	300.071922933485	677.416273871815	261.875380978835	358.529182089367	814.375257260969	407.344086198404	579.196698167625	746.708742142743	301.998771828206	640.762657724861	791.957614136803	208.391596854252	578.797528921373	661.087217812214	42.540532531595	547.428938721691	831.738165873098	97.806509292821	586.827829628638	742.521981076951	36.175517006707	624.609437395627	951.033663380945	44.490631203292	617.693395815740	479.267040122850	222.836280456595	385.091996561412	535.168020625913	163.976966128028	312.608937630921	638.830101011566	158.141599130874	340.753743836171	700.685358320885	34.482260704208	326.482084483087	714.019933699941	1077.241879594631	205.541353559428	804.189461145137	833.343029500235	196.406265922161	787.717277836671	1082.910967473042	771.042679879802	964.974779425776	892.753497547287	768.901734971721	
5	16.082285714286	782.635592860896	958.426755995983	341.025285393569	572.362544456575	1006.930482693251	500.362395682639	744.487542484535	1434.354715489831	318.166600869203	849.532501260504	1361.700868922025	476.757571873161	770.348146350892	1433.059001772360	654.655806572768	749.713879202086	1495.591535980637	470.756400016824	802.146454135422	945.063896131463	614.677204345383	844.198578614789	743.125975737255	588.244462257056	761.854104630507	636.714110012393	647.385936387217	835.357328616648	582.928159358547	565.433393631153	834.022216829174	495.997713121104	570.101620524574	861.619262512260	768.663451734882	375.268401268593	815.039483021856	643.931009486956	301.229288319960	914.580030738329	579.466523845465	367.051319654042	924.298267675799	488.121682266151	363.468070688844	854.772703899549	423.326707547692	355.339592925072	713.594547343135	387.156442916671	300.589837452224	690.897068891753	260.727305907670	358.142837305925	809.461410051676	407.155556771615	579.372408754513	741.532358585883	302.034315360927	641.061548585992	786.332662473328	208.327781647369	578.891257452811	654.938038624659	42.561044024735	547.490906731749	825.639745954530	97.801430031028	586.964166964586	736.420376724168	36.189967055215	624.724773574872	944.939068038822	44.436340452799	617.799356806749	494.239765240670	214.767568281535	385.759867589077	551.409251314804	158.983545931383	311.934177856704	655.458212219960	156.439488267962	339.240212431958	721.466807520605	35.249263128084	322.413964835166	709.523296910503	1076.769428058645	208.297256436617	787.906856638687	829.335227731539	200.128756154663	796.388031995788	1085.183053223547	772.167524920053	983.510554707235	905.535177747302	767.536214674923	
6	16.095357142857	780.735970222593	959.187205635582	341.557792923660	571.647209443159	1008.266000323703	501.992158222897	744.276152964365	1434.345487826872	318.011686538699	850.215281301211	1361.864487079327	476.013393840787	772.670737974478	1434.094723294911	654.276068366444	750.833654471141	1496.007524503551	470.315772348341	801.846857709464	945.149755443044	615.013152548775	841.861796533670	742.536885361322	588.101670916780	758.689394658610	636.938941389890	647.820465714618	831.057502765396	582.400018915813	565.545394439252	828.914211714086	495.653231968924	570.275464608523	862.266008038436	772.514779147082	376.707049860261	818.651598739302	647.302728433627	301.894631484779	919.101000744795	584.584406075992	368.070899553366	930.926789622751	493.602136514709	364.184200773155	863.539960044020	427.183095471437	355.433178612921	723.574220708801	386.162758037346	301.071794539910	706.257145972092	258.619140726245	357.692648930867	804.093937791689	406.949854689925	579.521571795552	735.881408860924	302.061228213047	641.334518109538	780.233325088148	208.249979189938	578.973617992580	648.305330698034	42.562407551033	547.541538803885	819.053603140998	97.791467586591	587.101039239080	729.832055833668	36.193052855439	624.831139424404	938.356729224510	44.386231739965	617.908060504723	511.949431420811	204.082044862904	386.450307254796	570.629410782902	152.070049135661	311.203773094521	674.886279342804	153.735771887493	337.628249187465	745.941538670529	35.924476032575	318.095697034260	704.562276091520	1076.383796362252	211.092116048839	770.738697266598	825.678121132204	204.122479593788	805.470258346554	1087.593737414297	773.147140751381	1002.734281619539	919.832222019738	765.755700763928	
